<svg xmlns="http://www.w3.org/2000/svg" width="760" height="236" viewBox="0 0 760 236" font-family="Inter,Segoe UI,DejaVu Sans,sans-serif"><rect width="760" height="236" fill="white"/><defs><marker id="a" viewBox="0 0 10 10" refX="9" refY="5" markerWidth="7" markerHeight="7" orient="auto"><path d="M0,0 L10,5 L0,10 z" fill="#5b6070"/></marker></defs><rect x="20" y="20" width="150" height="52" rx="7" fill="#f5f7fb" stroke="#c8ccd6"/><text x="95.0" y="50.0" text-anchor="middle" font-size="13" font-weight="600" fill="#1b1b1f">input event</text><line x1="170" y1="46" x2="205" y2="46" stroke="#5b6070" stroke-width="1.6" marker-end="url(#a)"/><rect x="205" y="20" width="190" height="52" rx="7" fill="#f5f7fb" stroke="#c8ccd6"/><text x="300.0" y="43.0" text-anchor="middle" font-size="13" font-weight="600" fill="#1b1b1f">component</text><text x="300.0" y="59.0" text-anchor="middle" font-size="10" fill="#5b6070">chooses a target</text><line x1="395" y1="46" x2="430" y2="46" stroke="#5b6070" stroke-width="1.6" marker-end="url(#a)"/><rect x="430" y="20" width="300" height="52" rx="7" fill="#e7edff" stroke="#4c6ef5"/><text x="580.0" y="43.0" text-anchor="middle" font-size="13" font-weight="600" fill="#1b1b1f">AnimationManager::animate</text><text x="580.0" y="59.0" text-anchor="middle" font-size="10" fill="#5b6070">from · to · duration ÷ speed · easing</text><line x1="580" y1="72" x2="580" y2="96" stroke="#5b6070" stroke-width="1.6" marker-end="url(#a)"/><rect x="430" y="96" width="300" height="46" rx="7" fill="#f5f7fb" stroke="#c8ccd6"/><text x="580.0" y="116.0" text-anchor="middle" font-size="13" font-weight="600" fill="#1b1b1f">MotionService</text><text x="580.0" y="132.0" text-anchor="middle" font-size="10" fill="#5b6070">speed 0.05–4.0 · enabled → instant</text><line x1="430" y1="119" x2="300" y2="119" stroke="#5b6070" stroke-width="1.6" marker-end="url(#a)"/><rect x="150" y="96" width="150" height="46" rx="7" fill="#f5f7fb" stroke="#c8ccd6"/><text x="225.0" y="123.0" text-anchor="middle" font-size="13" font-weight="600" fill="#1b1b1f">TimerManager::tick</text><line x1="225" y1="142" x2="225" y2="166" stroke="#5b6070" stroke-width="1.6" marker-end="url(#a)"/><rect x="150" y="166" width="300" height="46" rx="7" fill="#e7edff" stroke="#4c6ef5"/><text x="300.0" y="186.0" text-anchor="middle" font-size="13" font-weight="600" fill="#1b1b1f">AnimationManager::tick</text><text x="300.0" y="202.0" text-anchor="middle" font-size="10" fill="#5b6070">index walk · pending · dead flags</text><line x1="450" y1="189" x2="500" y2="189" stroke="#5b6070" stroke-width="1.6" marker-end="url(#a)"/><rect x="500" y="166" width="230" height="46" rx="7" fill="#f5f7fb" stroke="#c8ccd6"/><text x="615.0" y="193.0" text-anchor="middle" font-size="13" font-weight="600" fill="#1b1b1f">Node property → render</text></svg>